<svg xmlns="http://www.w3.org/2000/svg" width="27.297" height="24" viewBox="0 0 27.297 22.312">
  <g id="Group_29" data-name="Group 29" transform="translate(590.531 494)" opacity="1">
    <path id="Path_72" data-name="Path 72" d="M431.537,180.3a1.37,1.37,0,1,0-1.693,2.153,3.456,3.456,0,0,1-.144,5.453,1.2,1.2,0,0,0-.2,1.722l.115.115a1.386,1.386,0,0,0,1.866.23,6.193,6.193,0,0,0,.058-9.673Z" transform="translate(-1002.063 -667.967)" fill="#fff"/>
    <path id="Path_73" data-name="Path 73" d="M494.626,105.6a1.389,1.389,0,0,0-1.894.2,1.355,1.355,0,0,0,.172,1.894,8.469,8.469,0,0,1,0,13.146,1.368,1.368,0,0,0,1.722,2.124,11.138,11.138,0,0,0,0-17.365Z" transform="translate(-1062.023 -597.11)" fill="#fff"/>
    <path id="Path_74" data-name="Path 74" d="M96,62.78l-6.975,5.367H85.607A1.6,1.6,0,0,0,84,69.755v7.578a1.6,1.6,0,0,0,1.607,1.607h3.416l7,5.367a1.848,1.848,0,0,0,2.985-1.493V64.244A1.873,1.873,0,0,0,96,62.78Z" transform="translate(-674.531 -556.39)" fill="#fff"/>
  </g>
</svg>
